<svg width="173" height="48" viewBox="0 0 173 48" fill="none" xmlns="http://www.w3.org/2000/svg">
<path fill-rule="evenodd" clip-rule="evenodd" d="M143.071 0.0812258C143.772 0.302104 144.287 0.856971 144.475 1.59404C144.571 1.96684 144.567 2.25912 144.462 2.62464C144.259 3.32889 143.915 3.72787 143.223 4.06127C142.933 4.20097 142.18 4.23481 141.841 4.12331C140.761 3.76784 140.144 2.5861 140.46 1.47526C140.633 0.864992 141.191 0.279841 141.781 0.0912742C142.148 -0.0264473 142.715 -0.0308263 143.071 0.0812258ZM133.997 2.01755C134.912 2.49074 135.315 3.52414 134.957 4.47984C134.763 4.99741 134.271 5.45977 133.715 5.64613C133.395 5.75334 132.733 5.72209 132.432 5.58561C131.715 5.2607 131.256 4.57184 131.256 3.81937C131.256 3.35448 131.324 3.07944 131.51 2.78583C131.947 2.0971 132.434 1.83497 133.243 1.8535C133.66 1.86309 133.726 1.87729 133.997 2.01755ZM154.348 4.12252C154.045 3.49068 153.678 3.15203 153.048 2.92258C152.289 2.64639 151.354 2.88396 150.797 3.49427C150.32 4.01586 150.14 4.80599 150.329 5.542C150.432 5.94158 150.543 6.13716 150.857 6.4729C151.078 6.7082 151.205 6.79882 151.483 6.91959C151.814 7.06307 151.862 7.07105 152.381 7.07026C152.88 7.06953 152.957 7.05759 153.242 6.93742C153.696 6.74595 154.02 6.42556 154.277 5.91416L154.482 5.5055L154.481 4.95229C154.481 4.43665 154.472 4.38032 154.348 4.12252ZM139.016 7.52774C139.189 7.61522 139.414 7.74046 139.517 7.806C139.62 7.87154 139.719 7.9252 139.736 7.9252C139.754 7.9252 139.893 8.00475 140.045 8.10206C140.198 8.19931 140.477 8.36755 140.665 8.47592C140.854 8.58433 141.326 8.85973 141.716 9.08794C142.105 9.31619 142.516 9.55509 142.629 9.61884C142.742 9.68263 142.866 9.7597 142.903 9.79021C142.941 9.82068 143.075 9.89849 143.2 9.96306C143.326 10.0276 143.501 10.1239 143.588 10.177C143.676 10.2301 143.831 10.318 143.931 10.3723C144.032 10.4267 144.278 10.569 144.479 10.6887C144.68 10.8084 145.143 11.0784 145.507 11.2887C145.871 11.4991 146.277 11.741 146.408 11.8263C146.54 11.9116 146.657 11.9814 146.669 11.9814C146.681 11.9814 146.892 12.1023 147.138 12.2501C147.384 12.3978 147.768 12.6208 147.992 12.7456C148.216 12.8703 148.453 13.0035 148.518 13.0416C148.583 13.0796 148.954 13.2971 149.344 13.5248C149.733 13.7525 150.126 14.0063 150.216 14.0888C150.307 14.1714 150.44 14.3687 150.512 14.5275C150.62 14.7641 150.644 14.8792 150.645 15.166C150.645 15.4833 150.628 15.5497 150.464 15.8761C150.251 16.3003 149.958 16.6199 149.64 16.7744C149.453 16.8656 149.342 16.8854 149.024 16.8845C148.607 16.8833 148.504 16.8483 147.957 16.5205C147.81 16.4324 147.672 16.3602 147.651 16.3602C147.629 16.3602 147.6 16.438 147.585 16.5331C147.533 16.8749 147.357 17.3153 147.042 17.8928C146.838 18.2683 146.696 18.4805 146.649 18.4805C146.608 18.4805 146.341 18.3457 146.055 18.1809C145.769 18.0161 145.527 17.8813 145.518 17.8813C145.509 17.8813 145.306 17.7672 145.067 17.6278C144.828 17.4883 144.623 17.3743 144.611 17.3743C144.6 17.3743 144.237 17.1706 143.804 16.9216C143.025 16.4733 142.78 16.3369 141.761 15.7836C141.473 15.6268 141.133 15.4405 141.008 15.3698C140.882 15.2991 140.502 15.0861 140.163 14.8964C139.824 14.7068 139.32 14.422 139.044 14.2635C138.767 14.105 138.377 13.8875 138.176 13.78C137.975 13.6725 137.783 13.5587 137.75 13.5271C137.688 13.4677 137.712 13.4181 138.264 12.4423C138.44 12.1306 138.816 11.7075 139.032 11.5765C139.102 11.5347 139.158 11.4824 139.158 11.4603C139.158 11.4161 138.972 11.2479 138.92 11.2454C138.903 11.2446 138.594 11.0721 138.235 10.862C137.876 10.652 137.522 10.4498 137.449 10.4126C137.376 10.3755 137.22 10.2517 137.103 10.1377C136.801 9.84483 136.678 9.5002 136.699 9.00838C136.713 8.69039 136.74 8.59023 136.893 8.28048C137.07 7.92133 137.35 7.62449 137.661 7.46708C138.035 7.27745 138.569 7.30133 139.016 7.52774ZM126.603 8.17092C126.367 7.91801 126.044 7.74414 125.6 7.63052C125.249 7.54041 125.2 7.54161 124.781 7.65094C124.291 7.77857 124.011 7.95202 123.708 8.31616C123.419 8.6631 123.326 8.89951 123.279 9.40589C123.205 10.2103 123.639 10.9579 124.405 11.3467C124.687 11.4896 124.728 11.4974 125.204 11.4974C125.672 11.4974 125.727 11.4874 126.004 11.3547C126.743 10.9991 127.146 10.3612 127.145 9.54772C127.145 9.00949 126.968 8.56137 126.603 8.17092ZM161.11 10.4889C161.917 10.6572 162.607 11.2918 162.896 12.1305C163 12.4324 163.009 12.5144 162.99 13.0174C162.972 13.5159 162.956 13.6027 162.829 13.881C162.371 14.8848 161.497 15.4382 160.458 15.3822C159.923 15.3533 159.603 15.25 159.203 14.9763C158.82 14.7144 158.487 14.3133 158.284 13.8712C158.168 13.6163 158.144 13.4991 158.124 13.0864C158.097 12.5172 158.15 12.2158 158.347 11.8231C158.89 10.7406 159.924 10.2414 161.11 10.4889ZM135.984 12.9607C135.883 12.9016 135.667 12.788 135.504 12.7083C135.237 12.5776 135.16 12.5621 134.728 12.5518C134.088 12.5366 133.976 12.5668 133.489 12.8843C133.086 13.1474 132.905 13.3723 132.592 14.0002L132.33 14.5272V15.0404C132.33 15.5358 132.335 15.5658 132.496 15.9058C132.674 16.2817 132.956 16.6082 133.32 16.8584C133.437 16.9393 133.546 17.0055 133.562 17.0055C133.577 17.0055 133.697 17.074 133.828 17.1576C133.958 17.2413 134.209 17.3894 134.385 17.4867C134.561 17.584 134.736 17.6889 134.773 17.7198C134.811 17.7506 134.975 17.8479 135.139 17.9359C135.529 18.1462 136.04 18.442 136.988 19.0051C137.415 19.2588 137.855 19.515 137.965 19.5745C138.075 19.6339 138.253 19.7439 138.361 19.819C138.469 19.8941 138.577 19.9555 138.6 19.9555C138.623 19.9555 138.825 20.0662 139.048 20.2015C139.272 20.3368 139.578 20.5152 139.729 20.598C140.075 20.7878 140.521 21.0479 141.076 21.3828C141.81 21.8252 143.42 22.7579 144.439 23.3301C145.047 23.672 145.106 23.6952 145.493 23.7432C146.037 23.8108 146.465 23.7215 146.857 23.4586C147.163 23.2532 147.218 23.2447 147.565 23.3482C148.18 23.5315 148.457 23.7262 148.795 24.2121C148.943 24.424 149.251 24.6613 149.636 24.8604C149.805 24.9476 149.967 25.0369 149.997 25.059C150.078 25.1183 150.507 25.2782 150.896 25.3939C151.085 25.4499 151.33 25.5248 151.441 25.5603C151.553 25.5959 151.691 25.6249 151.748 25.6249C151.876 25.6249 152.234 25.7914 152.632 26.0355C152.795 26.1357 153.063 26.2952 153.226 26.3899C153.389 26.4846 153.584 26.6081 153.66 26.6642C153.735 26.7203 153.889 26.8164 154.002 26.8777C154.115 26.9389 154.362 27.0886 154.55 27.2101C154.739 27.3318 155.304 27.6903 155.807 28.007C156.309 28.3236 156.87 28.6847 157.053 28.8092C157.236 28.9338 157.396 29.0358 157.409 29.0358C157.422 29.0358 157.555 29.1193 157.704 29.2213C157.852 29.3233 158.011 29.4203 158.055 29.4368C158.1 29.4533 158.267 29.5565 158.427 29.6662C158.711 29.8614 158.821 29.8982 158.912 29.8302C159.065 29.717 159.686 28.5359 160.009 27.7452C160.076 27.5804 160.15 27.4259 160.173 27.4018C160.292 27.2762 160.209 27.1838 159.814 26.9998C159.595 26.8973 159.203 26.712 158.945 26.5879C158.686 26.4639 158.466 26.3624 158.456 26.3624C158.445 26.3624 158.215 26.2569 157.944 26.1279C157.673 25.9989 157.389 25.8654 157.314 25.8311C157.186 25.7731 156.618 25.5006 155.464 24.9444C155.2 24.8172 154.748 24.6046 154.459 24.472C154.17 24.3393 153.646 24.0973 153.294 23.9339L152.518 23.5736C151.633 23.1639 150.441 22.8523 149.456 22.7733C148.845 22.7243 148.688 22.6537 148.297 22.2507C148.086 22.0335 148.022 21.9373 148.041 21.8683C148.055 21.8176 148.079 21.6079 148.095 21.4022C148.118 21.0922 148.106 20.9699 148.021 20.6878C147.901 20.2822 147.736 20.0082 147.439 19.7189C147.225 19.5103 147.126 19.4463 146.329 19.0024C146.115 18.8834 145.93 18.7744 145.918 18.76C145.905 18.7457 145.854 18.7093 145.804 18.6792C145.633 18.5765 144.709 18.0431 144.451 17.8982C144.31 17.8187 144.08 17.68 143.941 17.5898C143.801 17.4996 143.567 17.3603 143.421 17.2801C143.118 17.114 142.885 16.9837 142.559 16.7979C142.434 16.7267 142.291 16.6453 142.241 16.6169C142.191 16.5885 142.063 16.5088 141.956 16.4397C141.85 16.3706 141.754 16.3141 141.744 16.3141C141.733 16.3141 141.485 16.1689 141.194 15.9915C140.902 15.814 140.652 15.6688 140.637 15.6688C140.623 15.6688 140.556 15.6303 140.49 15.5832C140.423 15.5362 140.276 15.4457 140.163 15.3823C139.982 15.2807 139.133 14.7957 138.244 14.2862C137.966 14.1263 137.071 13.5973 136.92 13.5031C136.882 13.4796 136.697 13.3721 136.509 13.2642C136.32 13.1564 136.084 13.0198 135.984 12.9607ZM121.176 15.0464C121.532 15.2189 121.801 15.4938 121.986 15.8727C122.121 16.1503 122.139 16.2289 122.139 16.5612C122.139 16.8885 122.121 16.9732 121.997 17.2249C121.747 17.7313 121.511 17.9453 121.011 18.1181C120.688 18.2298 120.407 18.2439 120.114 18.1631C119.289 17.936 118.84 17.3014 118.888 16.4336C118.914 15.9794 119.038 15.6894 119.334 15.3909C119.516 15.2067 119.624 15.1394 119.997 14.9777C120.192 14.8933 120.236 14.8875 120.568 14.9024C120.827 14.9141 120.975 14.9492 121.176 15.0464ZM172.364 15.6186C172.364 15.5963 172.3 15.474 172.223 15.3469C172.141 15.2125 172.05 15.1172 172.006 15.1193C171.908 15.1239 170.975 15.6121 170.636 15.8354C170.494 15.9297 170.264 16.0805 170.126 16.1707C168.197 17.4293 165.751 19.9211 164.251 22.1572C164.059 22.4428 163.886 22.6867 163.866 22.6992C163.807 22.7363 163.69 22.5901 163.54 22.2894C163.188 21.5839 162.495 20.6238 161.811 19.8945C161.513 19.5765 161.362 19.4484 161.285 19.4484C161.17 19.4484 160.672 19.5705 160.635 19.6077C160.623 19.62 160.697 19.7603 160.799 19.9195C161.117 20.4134 161.786 21.7227 161.999 22.268C162.051 22.403 162.11 22.5342 162.13 22.5596C162.15 22.585 162.251 22.834 162.356 23.1128C162.461 23.3917 162.576 23.6732 162.612 23.7384C162.647 23.8036 162.71 23.9592 162.751 24.0841C162.94 24.6642 163.234 25.0916 163.558 25.2602C163.759 25.3649 164.127 25.3763 164.338 25.2843C164.618 25.1624 164.941 24.7624 165.161 24.2652C165.684 23.0867 166.192 22.1875 167.029 20.9562C167.625 20.0802 168.962 18.4979 169.548 17.9749C169.62 17.9107 169.785 17.7545 169.915 17.6278C170.562 16.9945 171.558 16.1765 172.124 15.8132C172.256 15.7285 172.364 15.6409 172.364 15.6186ZM134.857 18.6742C134.865 18.6944 134.889 18.711 134.909 18.711C134.929 18.711 135.179 18.8373 135.465 18.9917C135.75 19.1462 136.158 19.366 136.372 19.4803C136.585 19.5945 136.853 19.7452 136.966 19.8151C137.16 19.9352 138.229 20.5351 138.694 20.7851C138.812 20.8485 138.98 20.9442 139.067 20.9978C139.231 21.0979 139.81 21.4117 140.254 21.6412C140.392 21.7125 140.569 21.8187 140.647 21.8772C140.724 21.9357 140.812 21.9836 140.842 21.9836C140.871 21.9836 140.972 22.0321 141.066 22.0915C141.16 22.1509 141.439 22.3117 141.688 22.4487C141.936 22.5858 142.255 22.7639 142.396 22.8444C142.537 22.9248 142.77 23.0548 142.915 23.1331C143.059 23.2114 143.177 23.295 143.177 23.3187C143.177 23.3814 143.08 23.6014 142.993 23.7351C142.951 23.7985 142.848 23.9852 142.762 24.1499C142.491 24.6748 142.25 24.9757 141.91 25.2158C141.803 25.2912 141.716 25.3677 141.716 25.3858C141.716 25.4226 142.046 25.6315 142.766 26.0503C143.574 26.5202 143.776 26.7806 143.807 27.3953C143.822 27.6863 143.806 27.8253 143.736 28.0279C143.624 28.3459 143.32 28.8075 143.12 28.9608C142.75 29.2449 142.174 29.3441 141.747 29.1976C141.565 29.1354 140.846 28.7309 139.726 28.0616C139.499 27.9256 139.252 27.7797 139.178 27.7374L138.959 27.6119L138.633 27.4261C137.955 27.0398 137.64 26.8567 137.298 26.6505C137.119 26.5427 136.95 26.4546 136.923 26.4546C136.896 26.4546 136.874 26.4338 136.874 26.4085C136.874 26.3831 136.854 26.3624 136.829 26.3624C136.805 26.3624 136.652 26.2808 136.491 26.1812C135.965 25.8562 135.005 25.3023 134.967 25.3023C134.947 25.3023 134.826 25.2325 134.698 25.1472C134.569 25.0618 134.303 24.9024 134.105 24.7927C133.907 24.683 133.571 24.4871 133.357 24.3573C133.144 24.2275 132.933 24.1075 132.889 24.0908C132.844 24.0739 132.666 23.9663 132.491 23.8516C132.317 23.7368 132.154 23.6429 132.13 23.6429C132.105 23.6429 132.057 23.617 132.023 23.5853C131.951 23.5182 131.92 23.5003 131.165 23.0746C130.279 22.5752 130.153 22.4681 129.981 22.068C129.724 21.4669 129.89 20.7314 130.416 20.1461C130.685 19.8458 131.141 19.6603 131.541 19.6875C131.819 19.7063 132.283 19.8875 132.581 20.0938C132.751 20.2114 133.209 20.4625 133.255 20.4625C133.276 20.4625 133.32 20.3121 133.351 20.1283C133.383 19.9445 133.447 19.7215 133.495 19.6328C133.542 19.5441 133.604 19.4196 133.632 19.3563C133.694 19.2175 134.131 18.4339 134.19 18.3565C134.221 18.3159 134.311 18.3453 134.537 18.4695C134.704 18.5619 134.849 18.654 134.857 18.6742ZM120.523 23.9292C120.523 23.5139 120.175 22.9557 119.769 22.7198C119.629 22.6385 119.496 22.609 119.198 22.5942C118.832 22.5758 118.794 22.583 118.536 22.7206C118.215 22.8915 118.09 23.0237 117.934 23.3563C117.843 23.5495 117.819 23.6739 117.818 23.9592C117.816 24.5348 118.053 24.9473 118.524 25.1839C118.838 25.3417 119.43 25.3536 119.727 25.2081C120.16 24.9967 120.523 24.4137 120.523 23.9292ZM119.33 29.0358C119.361 29.2766 119.415 29.6085 119.451 29.7733L119.658 30.7341C119.818 31.4753 120.175 32.6174 120.496 33.4146C120.735 34.0084 121.391 35.3776 121.621 35.7654C122.428 37.1224 122.904 37.812 123.657 38.7145C124.522 39.7514 124.824 40.0662 125.867 41.0201C126.823 41.8947 128.425 43.0596 129.566 43.71C129.73 43.8031 129.894 43.8996 129.932 43.9246C130.07 44.0166 131.378 44.6735 131.595 44.7606C131.719 44.81 131.904 44.8887 132.006 44.9355C132.352 45.0934 132.785 45.2713 132.969 45.3312C133.07 45.3639 133.357 45.4667 133.608 45.5596C134.145 45.7579 134.708 45.9308 135.71 46.2048C136.094 46.3101 136.836 46.4575 138.152 46.6899C139.433 46.9162 142.512 46.9662 144.289 46.7895C144.837 46.7351 145.303 46.6796 145.324 46.6664C145.345 46.6532 145.77 46.5697 146.268 46.4809C147.701 46.2256 149.701 45.6228 151.056 45.0379C151.232 44.962 151.545 44.8274 151.752 44.7388C152.621 44.3671 154.359 43.3787 155.19 42.7838C155.303 42.7029 155.535 42.5374 155.706 42.416C156.039 42.1789 156.818 41.5664 157.035 41.3703C158.798 39.7785 159.587 38.9011 160.754 37.2348C161.394 36.3207 162.161 34.9243 162.595 33.884C162.697 33.6386 162.817 33.3547 162.862 33.2533C162.995 32.9493 163.229 32.2857 163.229 32.2116C163.229 32.1736 163.246 32.1228 163.267 32.0987C163.321 32.0374 163.481 31.4591 163.616 30.842C163.678 30.5552 163.739 30.3045 163.751 30.285C163.784 30.2313 164.005 28.8611 164.005 28.7112C164.005 28.5629 164.083 28.4863 164.124 28.5942C164.187 28.759 163.862 31.1878 163.732 31.5248C163.708 31.5882 163.636 31.8647 163.572 32.1392C163.235 33.6002 162.314 35.8623 161.55 37.1074C160.666 38.5466 159.951 39.5175 159.016 40.5479C156.972 42.8017 154.349 44.6975 151.579 45.9221C151.021 46.1688 150.66 46.3166 150.44 46.3882C150.302 46.4332 150.127 46.4975 150.051 46.5311C149.35 46.8439 147.317 47.4144 146.283 47.5889C145.484 47.7238 145.348 47.7479 145.126 47.7944C143.769 48.0777 139.569 48.0657 138.085 47.7742C137.909 47.7397 137.621 47.6881 137.445 47.6595C136.511 47.5081 136.029 47.4002 135.047 47.1234C134.041 46.8397 132.81 46.4057 132.184 46.1137C131.993 46.0248 131.82 45.9519 131.799 45.9519C131.778 45.9519 131.438 45.7957 131.043 45.6048C127.93 44.0987 125.115 41.8031 123.093 39.1212C122.069 37.7637 121.089 36.0594 120.594 34.7744C120.496 34.5209 120.401 34.2927 120.383 34.2674C120.337 34.2044 119.987 33.0884 119.949 32.8862C119.932 32.7966 119.904 32.7232 119.886 32.7232C119.868 32.7232 119.816 32.5625 119.771 32.366C119.726 32.1695 119.652 31.874 119.607 31.7092C119.562 31.5444 119.492 31.2125 119.45 30.9717C119.409 30.7309 119.345 30.3772 119.31 30.1859C119.219 29.7002 119.13 28.6996 119.169 28.5979C119.224 28.452 119.272 28.5816 119.33 29.0358ZM152.754 30.5066C152.682 30.2631 152.485 30.0402 152.267 29.9526C152.132 29.8985 150.23 29.8875 140.094 29.882C133.487 29.8784 128.008 29.8901 127.918 29.9081C127.453 30.0008 127.247 30.3067 127.235 30.9256C127.231 31.1411 127.23 31.3433 127.232 31.375C127.239 31.4577 152.678 31.46 152.76 31.3773C152.834 31.3028 152.83 30.7615 152.754 30.5066ZM153.003 32.7237C153.735 32.8625 154.382 33.4436 154.677 34.2268C154.794 34.5392 154.796 34.5653 154.815 35.9866C154.825 36.7801 154.821 37.4801 154.805 37.5422L154.777 37.6552H139.958H125.14L125.108 37.4855C125.091 37.3922 125.089 36.7025 125.103 35.9529C125.132 34.4659 125.152 34.33 125.423 33.8142C125.677 33.3296 126.34 32.8326 126.871 32.7278C127.17 32.6688 152.692 32.665 153.003 32.7237ZM87.6531 11.7747C87.4489 11.4038 87.1675 10.9787 87.0279 10.83C86.8883 10.6814 86.7404 10.5614 86.6992 10.5632C86.5104 10.5719 85.8656 10.9168 83.8678 12.078C82.6851 12.7655 81.4297 13.486 81.0783 13.6794C80.7267 13.8727 80.28 14.1327 80.0856 14.2572C79.8913 14.3817 79.1358 14.8111 78.4068 15.2115C77.4213 15.7529 76.9838 15.9537 76.7868 16.2939C76.6023 16.6123 76.6285 17.0528 76.613 18.0089C76.5912 19.35 76.6103 19.6873 76.7163 19.8306C76.8427 20.0017 76.9748 20.0075 81.691 20.0503L86.5358 20.0942L86.8147 20.2921C87.277 20.62 87.3752 21.0725 87.3752 22.8749C87.3752 24.7378 87.3209 24.9171 86.6459 25.2825L86.2078 25.5196L80.0969 25.4844C74.1283 25.45 73.9779 25.445 73.6341 25.2675C73.4405 25.1676 73.2025 24.9514 73.1053 24.7869C72.9376 24.5032 72.9263 24.2863 72.8844 20.5523C72.8466 17.1822 72.8212 16.6046 72.7077 16.5333C72.6348 16.4876 71.8723 16.4495 71.0131 16.4487C69.7096 16.4477 69.4281 16.4703 69.3122 16.5855C69.1902 16.7069 69.1734 17.1945 69.1734 20.6148C69.1734 24.5052 69.1734 24.5059 68.9746 24.7968C68.8653 24.9568 68.6167 25.1703 68.4223 25.2712C68.0992 25.4388 67.921 25.4545 66.3459 25.4545C64.6822 25.4545 64.613 25.4475 64.3337 25.2494C64.1747 25.1366 63.966 24.891 63.8699 24.7037C63.7004 24.3733 63.6952 24.1644 63.6952 17.7193C63.6952 13.3076 63.6644 11.0184 63.6037 10.9055C63.5184 10.7469 63.4034 10.7356 61.886 10.7356C60.9915 10.7356 60.2405 10.7663 60.2172 10.8038C60.1938 10.8414 60.1501 14.9744 60.1199 19.9881C60.069 28.4333 60.1031 29.3319 59.6982 29.9368C59.6112 30.0668 59.5039 30.1832 59.3711 30.3581C58.6893 31.2562 58.0319 31.4189 55.3023 31.3654C53.6968 31.334 53.3341 31.3019 52.9682 31.1594C52.3636 30.9239 51.6982 30.3038 51.4214 29.7177L51.1925 29.2331L51.1654 26.0529L51.1382 22.8726L50.8202 22.7682C50.6052 22.6976 50.0591 22.6772 49.1334 22.7052C47.9173 22.7419 47.7507 22.7652 47.6397 22.9143C47.5358 23.0537 47.5206 23.6295 47.5494 26.3333C47.5734 28.5937 47.6175 29.6918 47.6941 29.9361C48.1712 31.4592 48.8305 32.544 49.8024 33.4055C50.4602 33.9886 51.8961 34.698 52.6504 34.8125C53.5335 34.9467 57.8715 34.9247 58.6146 34.7823C61.1117 34.304 63.3359 31.9473 63.65 29.4471L63.71 28.9695H66.3754C69.3581 28.9695 69.4347 28.9564 70.4844 28.2682C71.0036 27.9278 71.2133 27.8883 71.3884 28.098C71.5856 28.3343 72.5245 28.7576 73.1387 28.8871C73.6106 28.9866 74.9983 29.0107 80.3125 29.012C86.0879 29.0133 86.9606 28.9962 87.3812 28.8733C89.0449 28.3873 90.5131 26.8664 90.8733 25.2558C91.0012 24.6843 91.0083 24.3366 90.9321 22.3937C90.8649 20.6793 90.8105 20.0833 90.6902 19.7427C90.5057 19.2206 89.7638 18.1244 89.3659 17.7862C88.585 17.1222 88.4477 17.0383 87.6495 16.7366C87.1196 16.5363 86.9049 16.5117 85.3149 16.4688C84.2082 16.439 83.7367 16.4298 83.7166 16.3299C83.7014 16.2541 83.9463 16.126 84.371 15.8971C84.6869 15.7268 85.3429 15.3466 85.8289 15.0524C86.3149 14.7581 86.9113 14.4129 87.1543 14.2853C87.9071 13.8897 88.4355 13.464 88.4355 13.2529C88.4355 13.1474 88.343 12.9234 88.2299 12.7551C88.1168 12.5868 87.8572 12.1456 87.6531 11.7747ZM21.9823 12.3006C21.6794 11.754 21.3338 11.1782 21.2144 11.0212C21.0949 10.8641 20.9323 10.7371 20.853 10.739C20.7737 10.7408 20.4902 10.877 20.2229 11.0416C19.9556 11.2062 19.4586 11.4856 19.1184 11.6625C18.7783 11.8393 18.4403 12.0321 18.3674 12.0907C18.2045 12.2218 17.1349 12.8445 17.0728 12.8445C17.048 12.8445 16.8223 12.9735 16.571 13.1312C16.3198 13.2888 16.0347 13.4676 15.9375 13.5284C15.8403 13.5892 15.6278 13.6996 15.4651 13.7737C15.3024 13.8479 14.8511 14.1069 14.4621 14.3493C14.0732 14.5918 13.6893 14.8139 13.6092 14.843C13.5291 14.872 13.1255 15.0968 12.7125 15.3423C12.2994 15.5879 11.8557 15.8429 11.7265 15.909C11.5973 15.9751 11.3687 16.1408 11.2184 16.2773L10.9453 16.5253V18.1013C10.9453 19.4596 10.9654 19.6939 11.0914 19.7979C11.2097 19.8956 12.1524 19.9268 16.0655 19.9624C20.3259 20.0011 21.041 19.9823 21.3277 20.3235C21.4064 20.4172 21.4528 20.5381 21.5315 20.6947C21.7276 21.0851 21.734 21.1673 21.7079 22.943L21.6808 24.7861L21.3884 25.086C21.2275 25.251 20.9445 25.4311 20.7596 25.4862C20.5185 25.558 18.1392 25.5863 12.3488 25.586C4.50115 25.5857 4.26629 25.5809 3.99185 25.4145C3.30761 24.9995 3.2538 24.6218 3.26237 20.2924C3.26617 18.3716 3.24452 16.7602 3.2143 16.7115C3.18099 16.6579 2.57476 16.6232 1.67324 16.6232C0.50338 16.6232 0.165233 16.6495 0.0839435 16.7469C0.00760192 16.8384 -0.0124562 17.9533 0.00689424 21.0308C0.0328716 25.1603 0.0345512 25.1944 0.23857 25.6725C0.743096 26.8545 1.68447 27.9188 2.65755 28.4074C2.81499 28.4864 2.9423 28.5534 3.07401 28.6102C3.83374 28.9377 4.73989 28.9256 12.4174 28.9256C18.1164 28.9256 20.7969 28.8955 21.1129 28.8281C21.6812 28.707 22.426 28.3834 22.929 28.0393C23.3061 27.7812 23.3168 27.7794 23.6009 27.9242C23.7598 28.0051 23.9097 28.0995 23.934 28.1338C23.9583 28.168 24.3161 28.3499 24.7292 28.5379L25.4802 28.8795L27.6008 28.9113C29.0199 28.9325 29.8761 28.9087 30.1888 28.8394C30.7521 28.7144 31.6408 28.3199 32.058 28.0096C32.4452 27.7216 32.5634 27.7254 33.0423 28.0409C33.2574 28.1826 33.7514 28.4287 34.1399 28.5875L34.8462 28.8765L36.9385 28.9091C38.7044 28.9366 39.1105 28.9187 39.5413 28.794C40.6057 28.4863 41.6607 27.7774 42.33 26.9204C43.2721 25.7138 43.2932 25.572 43.2637 20.6214L43.2402 16.6671L41.8265 16.642C41.049 16.6282 40.3249 16.6384 40.2174 16.6648L40.022 16.7127L39.9965 20.7038C39.9718 24.573 39.9654 24.7025 39.7891 24.9429C39.689 25.0793 39.4306 25.283 39.2147 25.3956C38.8282 25.5972 38.7946 25.5994 36.9668 25.5417C35.3262 25.4899 35.0778 25.4626 34.822 25.3066C34.7066 25.2362 34.6137 25.1817 34.5388 25.1088C34.2238 24.8024 34.2252 24.1707 34.2034 20.6654C34.1815 17.1361 34.1648 16.7442 34.0319 16.6451C33.847 16.5072 31.2508 16.4911 30.9968 16.6262C30.8318 16.7141 30.8259 16.8509 30.8259 20.5834C30.8259 24.7277 30.818 24.8082 30.3734 25.2007C29.9984 25.5317 29.6378 25.5864 27.8292 25.5864C26.3111 25.5864 26.0581 25.5662 25.791 25.4237C25.1523 25.083 25.1336 25.0138 25.0668 22.7461C25.0243 21.305 24.9648 20.5551 24.8634 20.1821C24.5099 18.8822 23.3952 17.6013 22.0809 16.9846L21.4158 16.6725L19.494 16.6391C17.7696 16.6094 17.5722 16.5908 17.5722 16.4589C17.5722 16.3728 17.7457 16.2217 17.9912 16.0941C18.3577 15.9036 19.5805 15.1919 19.9578 14.9495C20.0307 14.9027 20.1898 14.8164 20.3113 14.7576C20.9304 14.4584 22.2627 13.6185 22.4229 13.4264C22.514 13.3173 22.438 13.123 21.9823 12.3006ZM45.0074 10.8751L44.7865 10.8141C44.4248 10.7141 38.6659 10.7291 38.491 10.8305C38.3531 10.9103 38.3364 11.0855 38.3364 12.4465V13.9729L38.8886 14.0308C39.1924 14.0626 40.6649 14.0756 42.1611 14.0598C44.4606 14.0353 44.8947 14.0105 44.9664 13.899C45.0142 13.8247 45.0417 13.1369 45.0293 12.3212L45.0074 10.8751ZM103.95 20.0063C103.568 18.613 102.236 17.2151 100.851 16.7525C100.231 16.5455 100.013 16.5216 98.4766 16.492C96.0333 16.4448 95.3099 16.5643 94.2829 17.1848C93.1788 17.8518 92.2589 19.0385 92.0009 20.1283C91.8589 20.7281 91.8332 25.9812 91.9698 26.4703C92.2209 27.3695 93.2664 28.5505 94.0672 28.8397C94.3134 28.9287 95.2027 28.9725 97.4922 29.0086L100.585 29.0574L100.61 29.7204C100.632 30.292 100.608 30.4253 100.432 30.687C100.051 31.2536 99.8506 31.2979 97.6665 31.298C96.0481 31.2982 95.6871 31.3212 95.5239 31.435C95.3334 31.5676 95.3274 31.6191 95.3274 33.1379V34.7039L95.5862 34.8106C95.7732 34.8876 96.4412 34.9076 97.994 34.8829C99.9214 34.8523 100.199 34.8291 100.684 34.658C102.276 34.0967 103.475 32.9406 103.918 31.5386C104.118 30.9075 104.119 30.8647 104.119 25.7621C104.119 20.9752 104.108 20.5791 103.95 20.0063ZM95.46 23.2137C95.46 20.6497 95.4777 20.5697 96.1193 20.248C96.4853 20.0644 96.6294 20.0503 98.1292 20.0503H99.7448L100.083 20.3543C100.602 20.82 100.641 21.0456 100.611 23.3895L100.585 25.4545H98.0224H95.46V23.2137ZM72.4426 33.1354C72.4426 31.7987 72.423 31.5732 72.3029 31.5273C72.226 31.498 70.7031 31.474 68.9187 31.474C66.5132 31.474 65.647 31.5012 65.5684 31.5794C65.4941 31.6532 65.4623 32.1359 65.4623 33.1875C65.4623 34.2391 65.4941 34.7218 65.5684 34.7956C65.7205 34.9469 72.1845 34.9469 72.3366 34.7956C72.4111 34.7215 72.4426 34.2275 72.4426 33.1354ZM35.7653 34.6917C35.835 34.6083 35.8591 34.1066 35.8424 33.088L35.8181 31.6058L32.525 31.5827L29.2319 31.5597L29.1453 31.7862C29.0977 31.9107 29.0587 32.5549 29.0587 33.2176C29.0587 34.166 29.0881 34.4641 29.1963 34.6178L29.3338 34.8132H32.4989C35.0847 34.8132 35.6825 34.791 35.7653 34.6917Z" fill="#A5A5A5"/>
</svg>
